<?xml version="1.0"?>
<svg xmlns="http://www.w3.org/2000/svg" xmlns:xlink="http://www.w3.org/1999/xlink" width="500" zoomAndPan="magnify" viewBox="0 0 375 374.999991" height="500" preserveAspectRatio="xMidYMid meet" version="1.2" style="background-color:transparent;">
  <defs>
    <clipPath id="f46bbcfa6b">
      <path d="M 5.496094 101.066406 L 117.984375 101.066406 L 117.984375 201.59375 L 5.496094 201.59375 Z M 5.496094 101.066406 "/>
    </clipPath>
    <clipPath id="006c40575a">
      <path d="M 58.925781 121.84375 C 79.992188 121.84375 97.074219 138.921875 97.074219 159.992188 C 97.074219 171.65625 91.832031 182.089844 83.585938 189.089844 L 100.953125 201.277344 C 111.398438 190.648438 117.851562 176.078125 117.851562 159.992188 C 117.851562 127.449219 91.46875 101.066406 58.925781 101.066406 C 35.53125 101.066406 15.320312 114.703125 5.804688 134.457031 L 23.175781 146.660156 C 28.585938 132.167969 42.546875 121.84375 58.925781 121.84375 Z M 58.925781 121.84375 "/>
    </clipPath>
    <clipPath id="c9de157d56">
      <path d="M 58.925781 121.84375 C 79.992188 121.84375 97.074219 138.921875 97.074219 159.992188 C 97.074219 171.65625 91.832031 182.089844 83.585938 189.089844 L 100.953125 201.277344 C 111.398438 190.648438 117.851562 176.078125 117.851562 159.992188 C 117.851562 127.449219 91.46875 101.066406 58.925781 101.066406 C 35.53125 101.066406 15.320312 114.703125 5.804688 134.457031 L 23.175781 146.660156 C 28.585938 132.167969 42.546875 121.84375 58.925781 121.84375 "/>
    </clipPath>
    <clipPath id="cb92bfe583">
      <path d="M -42.027344 136.25 L 45.140625 254.757812 L 165.683594 166.097656 L 78.515625 47.585938 Z M -42.027344 136.25 "/>
    </clipPath>
    <radialGradient gradientTransform="matrix(0.805556,-0.592519,0.592519,0.805556,58.718425,156.184646)" id="7b0c78f7c2" gradientUnits="userSpaceOnUse" r="87.215678" cx="0" fx="0" cy="0" fy="0">
      <stop style="stop-color:#797a7f;stop-opacity:1;" offset="0"/>
      <stop style="stop-color:#787a7f;stop-opacity:1;" offset="0.015625"/>
      <stop style="stop-color:#787a7e;stop-opacity:1;" offset="0.0195312"/>
      <stop style="stop-color:#78797e;stop-opacity:1;" offset="0.0234375"/>
      <stop style="stop-color:#78797d;stop-opacity:1;" offset="0.0273438"/>
      <stop style="stop-color:#77797d;stop-opacity:1;" offset="0.0390625"/>
      <stop style="stop-color:#76787c;stop-opacity:1;" offset="0.0507812"/>
      <stop style="stop-color:#76787c;stop-opacity:1;" offset="0.0546875"/>
      <stop style="stop-color:#76777b;stop-opacity:1;" offset="0.0585938"/>
      <stop style="stop-color:#75777b;stop-opacity:1;" offset="0.0625"/>
      <stop style="stop-color:#75777b;stop-opacity:1;" offset="0.0664062"/>
      <stop style="stop-color:#74767b;stop-opacity:1;" offset="0.0703125"/>
      <stop style="stop-color:#74767a;stop-opacity:1;" offset="0.0742188"/>
      <stop style="stop-color:#73757a;stop-opacity:1;" offset="0.0859375"/>
      <stop style="stop-color:#727479;stop-opacity:1;" offset="0.0976562"/>
      <stop style="stop-color:#727479;stop-opacity:1;" offset="0.101562"/>
      <stop style="stop-color:#727378;stop-opacity:1;" offset="0.105469"/>
      <stop style="stop-color:#717378;stop-opacity:1;" offset="0.109375"/>
      <stop style="stop-color:#717277;stop-opacity:1;" offset="0.121094"/>
      <stop style="stop-color:#707277;stop-opacity:1;" offset="0.132812"/>
      <stop style="stop-color:#707176;stop-opacity:1;" offset="0.144531"/>
      <stop style="stop-color:#6f7076;stop-opacity:1;" offset="0.148438"/>
      <stop style="stop-color:#6f7075;stop-opacity:1;" offset="0.152344"/>
      <stop style="stop-color:#6e6f75;stop-opacity:1;" offset="0.15625"/>
      <stop style="stop-color:#6d6f74;stop-opacity:1;" offset="0.167969"/>
      <stop style="stop-color:#6d6f73;stop-opacity:1;" offset="0.179688"/>
      <stop style="stop-color:#6d6e73;stop-opacity:1;" offset="0.183594"/>
      <stop style="stop-color:#6c6e72;stop-opacity:1;" offset="0.195312"/>
      <stop style="stop-color:#6c6d72;stop-opacity:1;" offset="0.199219"/>
      <stop style="stop-color:#6b6d71;stop-opacity:1;" offset="0.203125"/>
      <stop style="stop-color:#6b6c70;stop-opacity:1;" offset="0.214844"/>
      <stop style="stop-color:#6a6b70;stop-opacity:1;" offset="0.226562"/>
      <stop style="stop-color:#6a6b6f;stop-opacity:1;" offset="0.238281"/>
      <stop style="stop-color:#696a6f;stop-opacity:1;" offset="0.242188"/>
      <stop style="stop-color:#696a6e;stop-opacity:1;" offset="0.246094"/>
      <stop style="stop-color:#68696d;stop-opacity:1;" offset="0.25"/>
      <stop style="stop-color:#67696d;stop-opacity:1;" offset="0.261719"/>
      <stop style="stop-color:#67686d;stop-opacity:1;" offset="0.269531"/>
      <stop style="stop-color:#66686d;stop-opacity:1;" offset="0.273438"/>
      <stop style="stop-color:#66686c;stop-opacity:1;" offset="0.28125"/>
      <stop style="stop-color:#65676c;stop-opacity:1;" offset="0.289062"/>
      <stop style="stop-color:#65666b;stop-opacity:1;" offset="0.296875"/>
      <stop style="stop-color:#65666a;stop-opacity:1;" offset="0.304688"/>
      <stop style="stop-color:#64656a;stop-opacity:1;" offset="0.3125"/>
      <stop style="stop-color:#63646a;stop-opacity:1;" offset="0.316406"/>
      <stop style="stop-color:#636469;stop-opacity:1;" offset="0.324219"/>
      <stop style="stop-color:#636369;stop-opacity:1;" offset="0.332031"/>
      <stop style="stop-color:#626368;stop-opacity:1;" offset="0.339844"/>
      <stop style="stop-color:#626368;stop-opacity:1;" offset="0.347656"/>
      <stop style="stop-color:#616267;stop-opacity:1;" offset="0.351562"/>
      <stop style="stop-color:#616267;stop-opacity:1;" offset="0.359375"/>
      <stop style="stop-color:#606166;stop-opacity:1;" offset="0.367188"/>
      <stop style="stop-color:#5f6165;stop-opacity:1;" offset="0.375"/>
      <stop style="stop-color:#5f6064;stop-opacity:1;" offset="0.382812"/>
      <stop style="stop-color:#5f6064;stop-opacity:1;" offset="0.390625"/>
      <stop style="stop-color:#5e5f64;stop-opacity:1;" offset="0.398438"/>
      <stop style="stop-color:#5e5f63;stop-opacity:1;" offset="0.40625"/>
      <stop style="stop-color:#5d5e63;stop-opacity:1;" offset="0.414062"/>
      <stop style="stop-color:#5d5e62;stop-opacity:1;" offset="0.421875"/>
      <stop style="stop-color:#5c5d61;stop-opacity:1;" offset="0.429688"/>
      <stop style="stop-color:#5c5d61;stop-opacity:1;" offset="0.4375"/>
      <stop style="stop-color:#5b5c61;stop-opacity:1;" offset="0.445312"/>
      <stop style="stop-color:#5a5c60;stop-opacity:1;" offset="0.453125"/>
      <stop style="stop-color:#5a5b60;stop-opacity:1;" offset="0.460938"/>
      <stop style="stop-color:#595b5f;stop-opacity:1;" offset="0.46875"/>
      <stop style="stop-color:#595a5e;stop-opacity:1;" offset="0.476562"/>
      <stop style="stop-color:#585a5e;stop-opacity:1;" offset="0.484375"/>
      <stop style="stop-color:#58595e;stop-opacity:1;" offset="0.492188"/>
      <stop style="stop-color:#57595d;stop-opacity:1;" offset="0.5"/>
      <stop style="stop-color:#57595d;stop-opacity:1;" offset="0.507812"/>
      <stop style="stop-color:#57585c;stop-opacity:1;" offset="0.511719"/>
      <stop style="stop-color:#57585c;stop-opacity:1;" offset="0.515625"/>
      <stop style="stop-color:#57575c;stop-opacity:1;" offset="0.519531"/>
      <stop style="stop-color:#56575b;stop-opacity:1;" offset="0.523438"/>
      <stop style="stop-color:#56575b;stop-opacity:1;" offset="0.527344"/>
      <stop style="stop-color:#56565b;stop-opacity:1;" offset="0.53125"/>
      <stop style="stop-color:#55565b;stop-opacity:1;" offset="0.535156"/>
      <stop style="stop-color:#55555a;stop-opacity:1;" offset="0.546875"/>
      <stop style="stop-color:#545559;stop-opacity:1;" offset="0.558594"/>
      <stop style="stop-color:#545559;stop-opacity:1;" offset="0.5625"/>
      <stop style="stop-color:#545458;stop-opacity:1;" offset="0.566406"/>
      <stop style="stop-color:#535458;stop-opacity:1;" offset="0.570312"/>
      <stop style="stop-color:#535458;stop-opacity:1;" offset="0.574219"/>
      <stop style="stop-color:#535357;stop-opacity:1;" offset="0.578125"/>
      <stop style="stop-color:#525357;stop-opacity:1;" offset="0.582031"/>
      <stop style="stop-color:#525257;stop-opacity:1;" offset="0.59375"/>
      <stop style="stop-color:#525256;stop-opacity:1;" offset="0.597656"/>
      <stop style="stop-color:#525256;stop-opacity:1;" offset="0.601562"/>
      <stop style="stop-color:#525256;stop-opacity:1;" offset="0.605469"/>
      <stop style="stop-color:#515256;stop-opacity:1;" offset="0.609375"/>
      <stop style="stop-color:#515255;stop-opacity:1;" offset="0.613281"/>
      <stop style="stop-color:#515154;stop-opacity:1;" offset="0.617188"/>
      <stop style="stop-color:#505054;stop-opacity:1;" offset="0.628906"/>
      <stop style="stop-color:#4f5053;stop-opacity:1;" offset="0.636719"/>
      <stop style="stop-color:#4f4f53;stop-opacity:1;" offset="0.644531"/>
      <stop style="stop-color:#4e4f53;stop-opacity:1;" offset="0.648438"/>
      <stop style="stop-color:#4e4e52;stop-opacity:1;" offset="0.65625"/>
      <stop style="stop-color:#4e4e51;stop-opacity:1;" offset="0.664062"/>
      <stop style="stop-color:#4d4e51;stop-opacity:1;" offset="0.671875"/>
      <stop style="stop-color:#4d4d51;stop-opacity:1;" offset="0.679688"/>
      <stop style="stop-color:#4c4d50;stop-opacity:1;" offset="0.6875"/>
      <stop style="stop-color:#4b4c50;stop-opacity:1;" offset="0.691406"/>
      <stop style="stop-color:#4b4b4f;stop-opacity:1;" offset="0.699219"/>
      <stop style="stop-color:#4b4b4f;stop-opacity:1;" offset="0.707031"/>
      <stop style="stop-color:#4a4a4e;stop-opacity:1;" offset="0.714844"/>
      <stop style="stop-color:#4a4a4e;stop-opacity:1;" offset="0.722656"/>
      <stop style="stop-color:#4a4a4d;stop-opacity:1;" offset="0.726562"/>
      <stop style="stop-color:#49494c;stop-opacity:1;" offset="0.730469"/>
      <stop style="stop-color:#48484c;stop-opacity:1;" offset="0.746094"/>
      <stop style="stop-color:#48484c;stop-opacity:1;" offset="0.753906"/>
      <stop style="stop-color:#48484b;stop-opacity:1;" offset="0.757812"/>
      <stop style="stop-color:#47484b;stop-opacity:1;" offset="0.761719"/>
      <stop style="stop-color:#47474b;stop-opacity:1;" offset="0.765625"/>
      <stop style="stop-color:#47474a;stop-opacity:1;" offset="0.769531"/>
      <stop style="stop-color:#47474a;stop-opacity:1;" offset="0.773438"/>
      <stop style="stop-color:#464649;stop-opacity:1;" offset="0.785156"/>
      <stop style="stop-color:#464649;stop-opacity:1;" offset="0.789062"/>
      <stop style="stop-color:#464548;stop-opacity:1;" offset="0.800781"/>
      <stop style="stop-color:#464548;stop-opacity:1;" offset="0.804688"/>
      <stop style="stop-color:#454548;stop-opacity:1;" offset="0.808594"/>
      <stop style="stop-color:#444447;stop-opacity:1;" offset="0.820312"/>
      <stop style="stop-color:#444447;stop-opacity:1;" offset="0.828125"/>
      <stop style="stop-color:#434346;stop-opacity:1;" offset="0.835938"/>
      <stop style="stop-color:#434246;stop-opacity:1;" offset="0.84375"/>
      <stop style="stop-color:#424245;stop-opacity:1;" offset="0.851562"/>
      <stop style="stop-color:#424245;stop-opacity:1;" offset="0.859375"/>
      <stop style="stop-color:#414144;stop-opacity:1;" offset="0.867188"/>
      <stop style="stop-color:#414144;stop-opacity:1;" offset="0.875"/>
      <stop style="stop-color:#414044;stop-opacity:1;" offset="0.882812"/>
      <stop style="stop-color:#414043;stop-opacity:1;" offset="0.886719"/>
      <stop style="stop-color:#404043;stop-opacity:1;" offset="0.890625"/>
      <stop style="stop-color:#404043;stop-opacity:1;" offset="0.894531"/>
      <stop style="stop-color:#403f42;stop-opacity:1;" offset="0.898438"/>
      <stop style="stop-color:#403f42;stop-opacity:1;" offset="0.902344"/>
      <stop style="stop-color:#3f3f42;stop-opacity:1;" offset="0.90625"/>
      <stop style="stop-color:#3f3e41;stop-opacity:1;" offset="0.910156"/>
      <stop style="stop-color:#3f3e41;stop-opacity:1;" offset="0.917969"/>
      <stop style="stop-color:#3e3e40;stop-opacity:1;" offset="0.925781"/>
      <stop style="stop-color:#3e3d40;stop-opacity:1;" offset="0.933594"/>
      <stop style="stop-color:#3d3d3f;stop-opacity:1;" offset="0.9375"/>
      <stop style="stop-color:#3d3c3f;stop-opacity:1;" offset="0.941406"/>
      <stop style="stop-color:#3d3c3f;stop-opacity:1;" offset="0.945312"/>
      <stop style="stop-color:#3d3c3e;stop-opacity:1;" offset="0.949219"/>
      <stop style="stop-color:#3c3b3e;stop-opacity:1;" offset="0.960938"/>
      <stop style="stop-color:#3b3b3d;stop-opacity:1;" offset="0.96875"/>
      <stop style="stop-color:#3b3a3d;stop-opacity:1;" offset="0.976562"/>
      <stop style="stop-color:#3b3a3c;stop-opacity:1;" offset="0.980469"/>
      <stop style="stop-color:#3b3a3c;stop-opacity:1;" offset="0.988281"/>
      <stop style="stop-color:#3a3a3c;stop-opacity:1;" offset="0.992188"/>
      <stop style="stop-color:#3a3a3c;stop-opacity:1;" offset="1"/>
    </radialGradient>
    <clipPath id="6697c4bb1d">
      <path d="M 0 144.382812 L 141.695312 144.382812 L 141.695312 242.421875 L 0 242.421875 Z M 0 144.382812 "/>
    </clipPath>
  </defs>
  <g id="740bb9336b">
    <rect x="0" width="375" y="0" height="374.999991" style="fill:none;fill-opacity:1;stroke:none;" fill="none"/>
    <rect x="0" width="375" y="0" height="374.999991" style="fill:none;fill-opacity:1;stroke:none;" fill="none"/>
    <g clip-rule="nonzero" clip-path="url(#f46bbcfa6b)">
      <g clip-rule="nonzero" clip-path="url(#006c40575a)">
        <g clip-rule="nonzero" clip-path="url(#c9de157d56)">
          <g clip-rule="nonzero" clip-path="url(#cb92bfe583)">
            <path style=" stroke:none;fill-rule:nonzero;fill:url(#7b0c78f7c2);" d="M -42.027344 136.25 L 45.140625 254.757812 L 165.683594 166.097656 L 78.515625 47.585938 Z M -42.027344 136.25 "/>
          </g>
        </g>
      </g>
    </g>
    <g clip-rule="nonzero" clip-path="url(#6697c4bb1d)">
      <path style=" stroke:none;fill-rule:nonzero;fill:#00a76f;fill-opacity:1;" d="M 109.539062 219.851562 L 92.863281 208.148438 L 74.113281 194.988281 C 70.96875 196.355469 67.601562 197.308594 64.085938 197.785156 C 62.675781 197.976562 61.246094 198.085938 59.792969 198.117188 C 59.503906 198.125 59.214844 198.140625 58.925781 198.140625 C 37.855469 198.140625 20.777344 181.0625 20.777344 159.992188 C 20.777344 159.179688 20.8125 158.375 20.863281 157.570312 L 2.101562 144.394531 C 0.742188 149.363281 0 154.589844 0 159.992188 C 0 192.535156 26.382812 218.917969 58.925781 218.917969 C 65.050781 218.917969 70.957031 217.980469 76.511719 216.246094 L 141.695312 242.421875 L 109.539062 219.851562 "/>
    </g>
    <g style="fill:#00a76f;fill-opacity:1;">
      <g transform="translate(111.630393, 217.084479)">
        <path style="stroke:none" d="M 16.546875 0.6875 C 12.484375 0.6875 9.484375 -0.421875 7.546875 -2.640625 C 5.617188 -4.859375 4.65625 -8.039062 4.65625 -12.1875 L 4.65625 -36.140625 L 13.734375 -36.140625 L 13.734375 -13.328125 C 13.734375 -11.128906 14.207031 -9.519531 15.15625 -8.5 C 16.101562 -7.488281 17.570312 -6.984375 19.5625 -6.984375 C 22.070312 -6.984375 24.023438 -7.804688 25.421875 -9.453125 C 26.816406 -11.097656 27.515625 -13.691406 27.515625 -17.234375 L 27.515625 -36.140625 L 36.59375 -36.140625 L 36.59375 0 L 27.875 0 L 27.875 -5.3125 L 27.1875 -5.46875 C 26.03125 -3.394531 24.613281 -1.847656 22.9375 -0.828125 C 21.269531 0.179688 19.140625 0.6875 16.546875 0.6875 Z M 16.546875 0.6875 "/>
      </g>
    </g>
    <g style="fill:#00a76f;fill-opacity:1;">
      <g transform="translate(153.423204, 217.084479)">
        <path style="stroke:none" d="M 9.734375 -40.453125 C 8.085938 -40.453125 6.75 -40.945312 5.71875 -41.9375 C 4.695312 -42.9375 4.1875 -44.222656 4.1875 -45.796875 C 4.1875 -47.347656 4.695312 -48.617188 5.71875 -49.609375 C 6.75 -50.609375 8.085938 -51.109375 9.734375 -51.109375 C 10.828125 -51.109375 11.796875 -50.878906 12.640625 -50.421875 C 13.492188 -49.960938 14.15625 -49.332031 14.625 -48.53125 C 15.09375 -47.738281 15.328125 -46.828125 15.328125 -45.796875 C 15.328125 -44.773438 15.09375 -43.859375 14.625 -43.046875 C 14.15625 -42.234375 13.492188 -41.597656 12.640625 -41.140625 C 11.796875 -40.679688 10.828125 -40.453125 9.734375 -40.453125 Z M 5.203125 0 L 5.203125 -36.140625 L 14.28125 -36.140625 L 14.28125 0 Z M 5.203125 0 "/>
      </g>
    </g>
    <g style="fill:#00a76f;fill-opacity:1;">
      <g transform="translate(172.878478, 217.084479)">
        <path style="stroke:none" d="M 17.859375 0.6875 C 14.992188 0.6875 12.460938 -0.00390625 10.265625 -1.390625 C 8.078125 -2.773438 6.359375 -4.867188 5.109375 -7.671875 C 3.867188 -10.484375 3.25 -13.941406 3.25 -18.046875 C 3.25 -22.179688 3.882812 -25.648438 5.15625 -28.453125 C 6.4375 -31.253906 8.207031 -33.347656 10.46875 -34.734375 C 12.726562 -36.128906 15.34375 -36.828125 18.3125 -36.828125 C 20.5625 -36.828125 22.507812 -36.4375 24.15625 -35.65625 C 25.8125 -34.882812 27.207031 -33.679688 28.34375 -32.046875 L 29.03125 -32.203125 L 29.03125 -50.640625 L 38.09375 -50.640625 L 38.09375 0 L 29.03125 0 L 29.03125 -4.6875 L 28.34375 -4.8125 C 27.332031 -3.113281 25.953125 -1.769531 24.203125 -0.78125 C 22.460938 0.195312 20.347656 0.6875 17.859375 0.6875 Z M 20.796875 -7.015625 C 23.359375 -7.015625 25.378906 -7.925781 26.859375 -9.75 C 28.347656 -11.570312 29.09375 -14.335938 29.09375 -18.046875 C 29.09375 -21.765625 28.347656 -24.539062 26.859375 -26.375 C 25.378906 -28.207031 23.359375 -29.125 20.796875 -29.125 C 18.140625 -29.125 16.101562 -28.234375 14.6875 -26.453125 C 13.28125 -24.671875 12.578125 -21.867188 12.578125 -18.046875 C 12.578125 -14.242188 13.28125 -11.453125 14.6875 -9.671875 C 16.101562 -7.898438 18.140625 -7.015625 20.796875 -7.015625 Z M 20.796875 -7.015625 "/>
      </g>
    </g>
    <g style="fill:#5be49b;fill-opacity:1;">
      <g transform="translate(216.185067, 217.084479)">
        <path style="stroke:none" d="M 5.203125 14.640625 L 5.203125 -36.140625 L 14.28125 -36.140625 L 14.28125 -31.421875 L 14.96875 -31.28125 C 16.039062 -33.113281 17.472656 -34.492188 19.265625 -35.421875 C 21.054688 -36.359375 23.148438 -36.828125 25.546875 -36.828125 C 28.453125 -36.828125 30.992188 -36.132812 33.171875 -34.75 C 35.347656 -33.375 37.039062 -31.285156 38.25 -28.484375 C 39.457031 -25.679688 40.0625 -22.203125 40.0625 -18.046875 C 40.0625 -13.921875 39.421875 -10.457031 38.140625 -7.65625 C 36.867188 -4.863281 35.097656 -2.773438 32.828125 -1.390625 C 30.554688 -0.00390625 27.9375 0.6875 24.96875 0.6875 C 22.71875 0.6875 20.769531 0.3125 19.125 -0.4375 C 17.488281 -1.195312 16.101562 -2.375 14.96875 -3.96875 L 14.28125 -3.828125 L 14.28125 14.640625 Z M 22.4375 -7.015625 C 25.144531 -7.015625 27.195312 -7.894531 28.59375 -9.65625 C 30 -11.425781 30.703125 -14.222656 30.703125 -18.046875 C 30.703125 -21.867188 30 -24.671875 28.59375 -26.453125 C 27.195312 -28.234375 25.144531 -29.125 22.4375 -29.125 C 19.90625 -29.125 17.894531 -28.207031 16.40625 -26.375 C 14.925781 -24.539062 14.1875 -21.765625 14.1875 -18.046875 C 14.1875 -14.359375 14.925781 -11.597656 16.40625 -9.765625 C 17.894531 -7.929688 19.90625 -7.015625 22.4375 -7.015625 Z M 22.4375 -7.015625 "/>
      </g>
    </g>
    <g style="fill:#5be49b;fill-opacity:1;">
      <g transform="translate(259.451762, 217.084479)">
        <path style="stroke:none" d="M 14.09375 0.6875 C 11.769531 0.6875 9.753906 0.257812 8.046875 -0.59375 C 6.347656 -1.445312 5.039062 -2.695312 4.125 -4.34375 C 3.207031 -5.988281 2.75 -7.96875 2.75 -10.28125 C 2.75 -12.425781 3.207031 -14.222656 4.125 -15.671875 C 5.039062 -17.128906 6.457031 -18.320312 8.375 -19.25 C 10.300781 -20.175781 12.816406 -20.890625 15.921875 -21.390625 C 18.085938 -21.742188 19.734375 -22.125 20.859375 -22.53125 C 21.984375 -22.945312 22.738281 -23.414062 23.125 -23.9375 C 23.519531 -24.46875 23.71875 -25.140625 23.71875 -25.953125 C 23.71875 -27.109375 23.3125 -27.988281 22.5 -28.59375 C 21.695312 -29.207031 20.359375 -29.515625 18.484375 -29.515625 C 16.472656 -29.515625 14.5625 -29.066406 12.75 -28.171875 C 10.9375 -27.273438 9.363281 -26.097656 8.03125 -24.640625 L 7.375 -24.640625 L 3.578125 -30.375 C 5.410156 -32.40625 7.644531 -33.988281 10.28125 -35.125 C 12.925781 -36.257812 15.8125 -36.828125 18.9375 -36.828125 C 23.71875 -36.828125 27.175781 -35.8125 29.3125 -33.78125 C 31.457031 -31.75 32.53125 -28.863281 32.53125 -25.125 L 32.53125 -9.4375 C 32.53125 -7.820312 33.238281 -7.015625 34.65625 -7.015625 C 35.207031 -7.015625 35.742188 -7.113281 36.265625 -7.3125 L 36.71875 -7.171875 L 37.375 -0.859375 C 36.875 -0.523438 36.175781 -0.253906 35.28125 -0.046875 C 34.382812 0.160156 33.398438 0.265625 32.328125 0.265625 C 30.171875 0.265625 28.484375 -0.148438 27.265625 -0.984375 C 26.054688 -1.816406 25.191406 -3.113281 24.671875 -4.875 L 23.984375 -4.953125 C 22.210938 -1.191406 18.914062 0.6875 14.09375 0.6875 Z M 16.96875 -6.09375 C 19.0625 -6.09375 20.734375 -6.796875 21.984375 -8.203125 C 23.242188 -9.609375 23.875 -11.570312 23.875 -14.09375 L 23.875 -17.75 L 23.265625 -17.890625 C 22.710938 -17.453125 21.992188 -17.082031 21.109375 -16.78125 C 20.222656 -16.488281 18.953125 -16.203125 17.296875 -15.921875 C 15.328125 -15.597656 13.910156 -15.035156 13.046875 -14.234375 C 12.191406 -13.429688 11.765625 -12.300781 11.765625 -10.84375 C 11.765625 -9.289062 12.222656 -8.109375 13.140625 -7.296875 C 14.054688 -6.492188 15.332031 -6.09375 16.96875 -6.09375 Z M 16.96875 -6.09375 "/>
      </g>
    </g>
    <g style="fill:#5be49b;fill-opacity:1;">
      <g transform="translate(297.543485, 217.084479)">
        <path style="stroke:none" d="M 24.9375 -8.609375 L 27.296875 -1.90625 C 26.304688 -1.09375 25.066406 -0.457031 23.578125 0 C 22.097656 0.457031 20.421875 0.6875 18.546875 0.6875 C 14.628906 0.6875 11.65625 -0.375 9.625 -2.5 C 7.59375 -4.632812 6.578125 -7.734375 6.578125 -11.796875 L 6.578125 -28.953125 L 1.078125 -28.953125 L 1.078125 -36.171875 L 6.578125 -36.171875 L 6.578125 -43.21875 L 15.65625 -44.6875 L 15.65625 -36.171875 L 25.90625 -36.171875 L 25.90625 -28.953125 L 15.65625 -28.953125 L 15.65625 -12.453125 C 15.65625 -10.660156 16.023438 -9.351562 16.765625 -8.53125 C 17.515625 -7.71875 18.597656 -7.3125 20.015625 -7.3125 C 21.628906 -7.3125 23.039062 -7.742188 24.25 -8.609375 Z M 24.9375 -8.609375 "/>
      </g>
    </g>
    <g style="fill:#5be49b;fill-opacity:1;">
      <g transform="translate(325.612794, 217.084479)">
        <path style="stroke:none" d="M 5.203125 0 L 5.203125 -50.640625 L 14.28125 -50.640625 L 14.28125 -31.421875 L 14.96875 -31.28125 C 16.175781 -33.050781 17.648438 -34.414062 19.390625 -35.375 C 21.140625 -36.34375 23.25 -36.828125 25.71875 -36.828125 C 33.6875 -36.828125 37.671875 -32.304688 37.671875 -23.265625 L 37.671875 0 L 28.59375 0 L 28.59375 -22.109375 C 28.59375 -24.578125 28.101562 -26.367188 27.125 -27.484375 C 26.144531 -28.597656 24.617188 -29.15625 22.546875 -29.15625 C 20.003906 -29.15625 17.988281 -28.304688 16.5 -26.609375 C 15.019531 -24.921875 14.28125 -22.285156 14.28125 -18.703125 L 14.28125 0 Z M 5.203125 0 "/>
      </g>
    </g>
  </g>
</svg>
